<mxfile host="Electron" agent="Mozilla/5.0 (Windows NT 10.0; Win64; x64) AppleWebKit/537.36 (KHTML, like Gecko) draw.io/26.1.1 Chrome/132.0.6834.210 Electron/34.3.3 Safari/537.36" version="26.1.1">
  <diagram name="PÃ¡gina-1" id="nI-Yvf2fHHE0HuBe5KnH">
    <mxGraphModel dx="1434" dy="836" grid="1" gridSize="10" guides="1" tooltips="1" connect="1" arrows="1" fold="1" page="1" pageScale="1" pageWidth="827" pageHeight="1169" math="0" shadow="0">
      <root>
        <mxCell id="0" />
        <mxCell id="1" parent="0" />
        <mxCell id="yYhdbrsTAs3XfcKX1CrM-1" value="&lt;font face=&quot;Verdana&quot;&gt;Beginning&lt;/font&gt;" style="ellipse;whiteSpace=wrap;html=1;aspect=fixed;fillColor=#dae8fc;strokeColor=#6c8ebf;" parent="1" vertex="1">
          <mxGeometry x="180" y="90" width="80" height="80" as="geometry" />
        </mxCell>
        <mxCell id="yYhdbrsTAs3XfcKX1CrM-2" value="&lt;font face=&quot;Helvetica&quot; style=&quot;font-size: 18px;&quot;&gt;&lt;i style=&quot;&quot;&gt;&lt;b style=&quot;&quot;&gt;A&lt;/b&gt;&lt;/i&gt;&lt;/font&gt;" style="text;html=1;align=center;verticalAlign=middle;whiteSpace=wrap;rounded=0;" parent="1" vertex="1">
          <mxGeometry x="160" y="70" width="60" height="30" as="geometry" />
        </mxCell>
        <mxCell id="yYhdbrsTAs3XfcKX1CrM-3" value="Receive Client&#39;s HTTP request&lt;div&gt;by the endpoint &lt;u&gt;/v1/chimera/aggregation/predict&lt;/u&gt;&lt;/div&gt;" style="rounded=0;whiteSpace=wrap;html=1;fillColor=#dae8fc;strokeColor=#6c8ebf;" parent="1" vertex="1">
          <mxGeometry x="370" y="90" width="210" height="80" as="geometry" />
        </mxCell>
        <mxCell id="yYhdbrsTAs3XfcKX1CrM-4" value="Request predict to each worker through the endpoint &lt;u&gt;/v1/chimera/model/predict&lt;/u&gt;" style="rounded=0;whiteSpace=wrap;html=1;fillColor=#dae8fc;strokeColor=#6c8ebf;" parent="1" vertex="1">
          <mxGeometry x="370" y="240" width="210" height="80" as="geometry" />
        </mxCell>
        <mxCell id="yYhdbrsTAs3XfcKX1CrM-5" value="" style="endArrow=classic;html=1;rounded=0;exitX=1;exitY=0.5;exitDx=0;exitDy=0;entryX=0;entryY=0.5;entryDx=0;entryDy=0;" parent="1" source="yYhdbrsTAs3XfcKX1CrM-1" target="yYhdbrsTAs3XfcKX1CrM-3" edge="1">
          <mxGeometry width="50" height="50" relative="1" as="geometry">
            <mxPoint x="460" y="350" as="sourcePoint" />
            <mxPoint x="510" y="300" as="targetPoint" />
          </mxGeometry>
        </mxCell>
        <mxCell id="yYhdbrsTAs3XfcKX1CrM-6" value="&lt;font face=&quot;Helvetica&quot; style=&quot;font-size: 18px;&quot;&gt;&lt;i style=&quot;&quot;&gt;&lt;b style=&quot;&quot;&gt;B&lt;/b&gt;&lt;/i&gt;&lt;/font&gt;" style="text;html=1;align=center;verticalAlign=middle;whiteSpace=wrap;rounded=0;" parent="1" vertex="1">
          <mxGeometry x="330" y="70" width="60" height="30" as="geometry" />
        </mxCell>
        <mxCell id="yYhdbrsTAs3XfcKX1CrM-7" value="" style="endArrow=classic;html=1;rounded=0;exitX=0.5;exitY=1;exitDx=0;exitDy=0;entryX=0.5;entryY=0;entryDx=0;entryDy=0;" parent="1" source="yYhdbrsTAs3XfcKX1CrM-3" target="yYhdbrsTAs3XfcKX1CrM-4" edge="1">
          <mxGeometry width="50" height="50" relative="1" as="geometry">
            <mxPoint x="390" y="350" as="sourcePoint" />
            <mxPoint x="450" y="270" as="targetPoint" />
          </mxGeometry>
        </mxCell>
        <mxCell id="yYhdbrsTAs3XfcKX1CrM-8" value="" style="edgeStyle=orthogonalEdgeStyle;rounded=0;orthogonalLoop=1;jettySize=auto;html=1;" parent="1" source="yYhdbrsTAs3XfcKX1CrM-9" target="yYhdbrsTAs3XfcKX1CrM-22" edge="1">
          <mxGeometry relative="1" as="geometry" />
        </mxCell>
        <mxCell id="yYhdbrsTAs3XfcKX1CrM-9" value="Receive results from the responsive workers (status code 200)" style="rounded=0;whiteSpace=wrap;html=1;fillColor=#dae8fc;strokeColor=#6c8ebf;" parent="1" vertex="1">
          <mxGeometry x="85" y="555" width="210" height="80" as="geometry" />
        </mxCell>
        <mxCell id="yYhdbrsTAs3XfcKX1CrM-10" value="" style="endArrow=classic;html=1;rounded=0;exitX=0.5;exitY=1;exitDx=0;exitDy=0;entryX=0.5;entryY=0;entryDx=0;entryDy=0;" parent="1" source="yYhdbrsTAs3XfcKX1CrM-4" edge="1">
          <mxGeometry width="50" height="50" relative="1" as="geometry">
            <mxPoint x="390" y="350" as="sourcePoint" />
            <mxPoint x="475" y="390" as="targetPoint" />
          </mxGeometry>
        </mxCell>
        <mxCell id="yYhdbrsTAs3XfcKX1CrM-11" value="All workers failed?" style="rhombus;whiteSpace=wrap;html=1;fillColor=#dae8fc;strokeColor=#6c8ebf;" parent="1" vertex="1">
          <mxGeometry x="386.25" y="540" width="177.5" height="110" as="geometry" />
        </mxCell>
        <mxCell id="yYhdbrsTAs3XfcKX1CrM-12" value="Concurrently, for each worker, waits either for response, timeout or max retries finish" style="rounded=0;whiteSpace=wrap;html=1;fillColor=#dae8fc;strokeColor=#6c8ebf;" parent="1" vertex="1">
          <mxGeometry x="370" y="390" width="210" height="80" as="geometry" />
        </mxCell>
        <mxCell id="yYhdbrsTAs3XfcKX1CrM-13" value="" style="endArrow=classic;html=1;rounded=0;exitX=0.5;exitY=1;exitDx=0;exitDy=0;entryX=0.5;entryY=0;entryDx=0;entryDy=0;" parent="1" target="yYhdbrsTAs3XfcKX1CrM-11" edge="1">
          <mxGeometry width="50" height="50" relative="1" as="geometry">
            <mxPoint x="474.5" y="470" as="sourcePoint" />
            <mxPoint x="474.5" y="540" as="targetPoint" />
          </mxGeometry>
        </mxCell>
        <mxCell id="yYhdbrsTAs3XfcKX1CrM-14" value="" style="endArrow=classic;html=1;rounded=0;exitX=1;exitY=0.5;exitDx=0;exitDy=0;entryX=0;entryY=0.5;entryDx=0;entryDy=0;" parent="1" source="yYhdbrsTAs3XfcKX1CrM-11" target="yYhdbrsTAs3XfcKX1CrM-18" edge="1">
          <mxGeometry width="50" height="50" relative="1" as="geometry">
            <mxPoint x="390" y="550" as="sourcePoint" />
            <mxPoint x="660" y="595" as="targetPoint" />
          </mxGeometry>
        </mxCell>
        <mxCell id="yYhdbrsTAs3XfcKX1CrM-15" value="Yes" style="edgeLabel;html=1;align=center;verticalAlign=middle;resizable=0;points=[];" parent="yYhdbrsTAs3XfcKX1CrM-14" vertex="1" connectable="0">
          <mxGeometry x="-0.3506" y="3" relative="1" as="geometry">
            <mxPoint x="15" y="-7" as="offset" />
          </mxGeometry>
        </mxCell>
        <mxCell id="yYhdbrsTAs3XfcKX1CrM-16" value="" style="endArrow=classic;html=1;rounded=0;exitX=0;exitY=0.5;exitDx=0;exitDy=0;entryX=1;entryY=0.5;entryDx=0;entryDy=0;" parent="1" source="yYhdbrsTAs3XfcKX1CrM-11" target="yYhdbrsTAs3XfcKX1CrM-9" edge="1">
          <mxGeometry width="50" height="50" relative="1" as="geometry">
            <mxPoint x="574" y="605" as="sourcePoint" />
            <mxPoint x="300" y="595" as="targetPoint" />
          </mxGeometry>
        </mxCell>
        <mxCell id="yYhdbrsTAs3XfcKX1CrM-17" value="No" style="edgeLabel;html=1;align=center;verticalAlign=middle;resizable=0;points=[];" parent="yYhdbrsTAs3XfcKX1CrM-16" vertex="1" connectable="0">
          <mxGeometry x="0.0857" y="-2" relative="1" as="geometry">
            <mxPoint x="6" y="-8" as="offset" />
          </mxGeometry>
        </mxCell>
        <mxCell id="yYhdbrsTAs3XfcKX1CrM-18" value="Return error message as JSON-formatted response through the endpoint&amp;nbsp;&lt;u&gt;/v1/chimera/aggregation/predict&lt;/u&gt;" style="rounded=0;whiteSpace=wrap;html=1;fillColor=#dae8fc;strokeColor=#6c8ebf;" parent="1" vertex="1">
          <mxGeometry x="660" y="555" width="240" height="80" as="geometry" />
        </mxCell>
        <mxCell id="yYhdbrsTAs3XfcKX1CrM-19" value="&lt;font face=&quot;Verdana&quot;&gt;End&lt;/font&gt;" style="ellipse;whiteSpace=wrap;html=1;aspect=fixed;fillColor=#dae8fc;strokeColor=#6c8ebf;" parent="1" vertex="1">
          <mxGeometry x="435" y="890" width="80" height="80" as="geometry" />
        </mxCell>
        <mxCell id="yYhdbrsTAs3XfcKX1CrM-20" value="" style="endArrow=classic;html=1;rounded=0;exitX=0.5;exitY=1;exitDx=0;exitDy=0;entryX=1;entryY=0.5;entryDx=0;entryDy=0;" parent="1" source="yYhdbrsTAs3XfcKX1CrM-18" target="yYhdbrsTAs3XfcKX1CrM-19" edge="1">
          <mxGeometry width="50" height="50" relative="1" as="geometry">
            <mxPoint x="390" y="750" as="sourcePoint" />
            <mxPoint x="765" y="1650" as="targetPoint" />
            <Array as="points">
              <mxPoint x="780" y="930" />
            </Array>
          </mxGeometry>
        </mxCell>
        <mxCell id="yYhdbrsTAs3XfcKX1CrM-21" value="" style="edgeStyle=orthogonalEdgeStyle;rounded=0;orthogonalLoop=1;jettySize=auto;html=1;" parent="1" source="yYhdbrsTAs3XfcKX1CrM-22" target="yYhdbrsTAs3XfcKX1CrM-23" edge="1">
          <mxGeometry relative="1" as="geometry" />
        </mxCell>
        <mxCell id="yYhdbrsTAs3XfcKX1CrM-22" value="Aggregate results by calculating the arithmetic mean" style="rounded=0;whiteSpace=wrap;html=1;fillColor=#dae8fc;strokeColor=#6c8ebf;" parent="1" vertex="1">
          <mxGeometry x="85" y="730" width="210" height="80" as="geometry" />
        </mxCell>
        <mxCell id="yYhdbrsTAs3XfcKX1CrM-23" value="Return result as JSON-formatted response through the endpoint&amp;nbsp;&lt;u&gt;/v1/chimera/aggregation/predict&lt;/u&gt;" style="rounded=0;whiteSpace=wrap;html=1;fillColor=#dae8fc;strokeColor=#6c8ebf;" parent="1" vertex="1">
          <mxGeometry x="72.5" y="890" width="235" height="80" as="geometry" />
        </mxCell>
        <mxCell id="yYhdbrsTAs3XfcKX1CrM-24" value="" style="endArrow=classic;html=1;rounded=0;exitX=1;exitY=0.5;exitDx=0;exitDy=0;entryX=0;entryY=0.5;entryDx=0;entryDy=0;" parent="1" source="yYhdbrsTAs3XfcKX1CrM-23" target="yYhdbrsTAs3XfcKX1CrM-19" edge="1">
          <mxGeometry width="50" height="50" relative="1" as="geometry">
            <mxPoint x="390" y="750" as="sourcePoint" />
            <mxPoint x="440" y="700" as="targetPoint" />
          </mxGeometry>
        </mxCell>
        <mxCell id="yYhdbrsTAs3XfcKX1CrM-25" value="&lt;font face=&quot;Helvetica&quot; style=&quot;font-size: 18px;&quot;&gt;&lt;i style=&quot;&quot;&gt;&lt;b style=&quot;&quot;&gt;C&lt;/b&gt;&lt;/i&gt;&lt;/font&gt;" style="text;html=1;align=center;verticalAlign=middle;whiteSpace=wrap;rounded=0;" parent="1" vertex="1">
          <mxGeometry x="330" y="210" width="60" height="30" as="geometry" />
        </mxCell>
        <mxCell id="yYhdbrsTAs3XfcKX1CrM-26" value="&lt;font face=&quot;Helvetica&quot; style=&quot;font-size: 18px;&quot;&gt;&lt;i style=&quot;&quot;&gt;&lt;b style=&quot;&quot;&gt;D&lt;/b&gt;&lt;/i&gt;&lt;/font&gt;" style="text;html=1;align=center;verticalAlign=middle;whiteSpace=wrap;rounded=0;" parent="1" vertex="1">
          <mxGeometry x="330" y="360" width="60" height="30" as="geometry" />
        </mxCell>
        <mxCell id="yYhdbrsTAs3XfcKX1CrM-27" value="&lt;font face=&quot;Helvetica&quot; style=&quot;font-size: 18px;&quot;&gt;&lt;i style=&quot;&quot;&gt;&lt;b style=&quot;&quot;&gt;H&lt;/b&gt;&lt;/i&gt;&lt;/font&gt;" style="text;html=1;align=center;verticalAlign=middle;whiteSpace=wrap;rounded=0;" parent="1" vertex="1">
          <mxGeometry x="50" y="700" width="60" height="30" as="geometry" />
        </mxCell>
        <mxCell id="yYhdbrsTAs3XfcKX1CrM-28" value="&lt;font face=&quot;Helvetica&quot; style=&quot;font-size: 18px;&quot;&gt;&lt;i style=&quot;&quot;&gt;&lt;b style=&quot;&quot;&gt;F&lt;/b&gt;&lt;/i&gt;&lt;/font&gt;" style="text;html=1;align=center;verticalAlign=middle;whiteSpace=wrap;rounded=0;" parent="1" vertex="1">
          <mxGeometry x="620" y="530" width="60" height="30" as="geometry" />
        </mxCell>
        <mxCell id="yYhdbrsTAs3XfcKX1CrM-29" value="&lt;font face=&quot;Helvetica&quot; style=&quot;font-size: 18px;&quot;&gt;&lt;i style=&quot;&quot;&gt;&lt;b style=&quot;&quot;&gt;G&lt;/b&gt;&lt;/i&gt;&lt;/font&gt;" style="text;html=1;align=center;verticalAlign=middle;whiteSpace=wrap;rounded=0;" parent="1" vertex="1">
          <mxGeometry x="50" y="530" width="60" height="30" as="geometry" />
        </mxCell>
        <mxCell id="yYhdbrsTAs3XfcKX1CrM-30" value="&lt;font face=&quot;Helvetica&quot; style=&quot;font-size: 18px;&quot;&gt;&lt;i style=&quot;&quot;&gt;&lt;b style=&quot;&quot;&gt;E&lt;/b&gt;&lt;/i&gt;&lt;/font&gt;" style="text;html=1;align=center;verticalAlign=middle;whiteSpace=wrap;rounded=0;" parent="1" vertex="1">
          <mxGeometry x="375" y="530" width="60" height="30" as="geometry" />
        </mxCell>
        <mxCell id="yYhdbrsTAs3XfcKX1CrM-31" value="&lt;font face=&quot;Helvetica&quot; style=&quot;font-size: 18px;&quot;&gt;&lt;i style=&quot;&quot;&gt;&lt;b style=&quot;&quot;&gt;I&lt;/b&gt;&lt;/i&gt;&lt;/font&gt;" style="text;html=1;align=center;verticalAlign=middle;whiteSpace=wrap;rounded=0;" parent="1" vertex="1">
          <mxGeometry x="40" y="860" width="60" height="30" as="geometry" />
        </mxCell>
        <mxCell id="yYhdbrsTAs3XfcKX1CrM-32" value="&lt;font face=&quot;Helvetica&quot; style=&quot;font-size: 18px;&quot;&gt;&lt;i style=&quot;&quot;&gt;&lt;b style=&quot;&quot;&gt;J&lt;/b&gt;&lt;/i&gt;&lt;/font&gt;" style="text;html=1;align=center;verticalAlign=middle;whiteSpace=wrap;rounded=0;" parent="1" vertex="1">
          <mxGeometry x="410" y="870" width="60" height="30" as="geometry" />
        </mxCell>
      </root>
    </mxGraphModel>
  </diagram>
</mxfile>
